<svg xmlns="http://www.w3.org/2000/svg" viewBox="0 0 24 24"><defs><style>.cls-1{fill:none;}.cls-2{fill:#494949;}</style></defs><g id="Layer_2" data-name="Layer 2"><path id="Path_387" data-name="Path 387" class="cls-1" d="M0,0H24V24H0Z"/><path id="Path_388" data-name="Path 388" class="cls-2" d="M16.5,6h-9V7.5L12.38,12,7.5,16.5V18h9V15.75H11.25L15,12,11.25,8.25H16.5Z"/><path class="cls-2" d="M20,2H4A2,2,0,0,0,2,4V20a2,2,0,0,0,2,2H20a2,2,0,0,0,2-2V4A2,2,0,0,0,20,2Zm0,17a1,1,0,0,1-1,1H5a1,1,0,0,1-1-1V5A1,1,0,0,1,5,4H19a1,1,0,0,1,1,1Z"/></g></svg>