<svg xmlns="http://www.w3.org/2000/svg" viewBox="0 0 24 24"><defs><style>.cls-1{fill:#30ab9f;}.cls-2{fill:#444;}</style></defs><g id="Layer_2" data-name="Layer 2"><rect class="cls-1" x="10.72" y="13.67" width="2.15" height="11.72" transform="translate(-7.73 31.32) rotate(-90)"/><path class="cls-1" d="M5.82,17.52a2.36,2.36,0,0,0-3.36.55A2.53,2.53,0,0,0,3,21.53,2.39,2.39,0,0,0,4.78,22a2.37,2.37,0,0,0,1.57-1,2.52,2.52,0,0,0,.46-1.45,2.56,2.56,0,0,0,0-.39A2.49,2.49,0,0,0,5.82,17.52Zm-.46,1.85a1,1,0,0,1-.8,1.13,1,1,0,0,1-1.1-.82,1,1,0,1,1,1.9-.31Z"/><path class="cls-1" d="M21,17.52a2.39,2.39,0,0,0-1.79-.44,2.37,2.37,0,0,0-1.57,1,2.53,2.53,0,0,0,.53,3.46A2.36,2.36,0,0,0,21.54,21,2.52,2.52,0,0,0,22,19.53a2.56,2.56,0,0,0,0-.39A2.49,2.49,0,0,0,21,17.52Zm-.47,1.85a1,1,0,1,1-1.9.31,1,1,0,0,1,.8-1.13A1,1,0,0,1,20.54,19.37Z"/><path id="Path_275" data-name="Path 275" class="cls-2" d="M20,10.29,6,2H4V14H3l2,2.6L7,14H6V4.56l5,2.88V14H10l2,2.6L14,14H13V8.6l5,2.89V14H17l2,2.6L21,14H20Z"/></g></svg>