<svg xmlns="http://www.w3.org/2000/svg" viewBox="0 0 24 24"><defs><style>.cls-1{fill:none;stroke:#9fb1dc;stroke-linecap:round;stroke-linejoin:round;stroke-width:0;opacity:0;}.cls-2{fill:#30ab9f;}.cls-3{fill:#125da9;}</style></defs><g id="Layer_2" data-name="Layer 2"><rect class="cls-1" x="2" y="2" width="20" height="20"/><rect class="cls-2" x="10.75" y="5.85" width="2.2" height="12" transform="translate(-4.91 11.85) rotate(-45)"/><path class="cls-2" d="M9,6.08A2.41,2.41,0,0,0,6.15,4a2.55,2.55,0,0,0-1.65,1A2.49,2.49,0,0,0,4,6.92,2.41,2.41,0,0,0,6.85,9a2.62,2.62,0,0,0,1.39-.71,3.88,3.88,0,0,0,.26-.31A2.49,2.49,0,0,0,9,6.08Zm-1.67,1a1,1,0,0,1-1.4.24,1,1,0,0,1-.2-1.4,1,1,0,0,1,1.4-.24A1,1,0,0,1,7.3,7.08Z"/><path class="cls-2" d="M20,17.08a2.41,2.41,0,0,0-2.82-2,2.55,2.55,0,0,0-1.65,1A2.49,2.49,0,0,0,15,17.92a2.41,2.41,0,0,0,2.82,2,2.62,2.62,0,0,0,1.39-.71,3.88,3.88,0,0,0,.26-.31A2.49,2.49,0,0,0,20,17.08Zm-1.67,1a1,1,0,0,1-1.4.24,1,1,0,0,1-.2-1.4,1,1,0,0,1,1.4-.24A1,1,0,0,1,18.3,18.08Z"/><rect class="cls-3" x="17.5" y="2" width="2" height="7"/><rect class="cls-3" x="15" y="4.5" width="7" height="2"/></g></svg>