<svg xmlns="http://www.w3.org/2000/svg" viewBox="0 0 24 24"><defs><style>.cls-1{fill:#fff;}.cls-2{fill:#a4a3a3;}.cls-3{fill:#125da9;}</style></defs><g id="Layer_2" data-name="Layer 2"><rect class="cls-1" x="15.2" y="11" width="3.2" height="2.6"/><rect class="cls-1" x="5.6" y="10.4" width="3.2" height="3.2"/><path class="cls-1" d="M5.6,15.2v2.62a.4.4,0,0,0,.4.4H8.8v-3Z"/><path class="cls-1" d="M15.2,18.22H18a.4.4,0,0,0,.4-.4V15.2H15.2Z"/><rect class="cls-1" x="10.4" y="5.78" width="2.6" height="3.02"/><path class="cls-1" d="M8.8,5.78H6.4a.8.8,0,0,0-.8.8V8.8H8.8Z"/><rect class="cls-1" x="10.4" y="15.2" width="3.2" height="3.02"/><polygon class="cls-1" points="13 10.4 10.4 10.4 10.4 13.6 13.6 13.6 13.6 11 13 11 13 10.4"/><rect class="cls-2" x="8.8" y="5.78" width="1.6" height="3.02"/><rect class="cls-2" x="8.8" y="15.2" width="1.6" height="3.02"/><rect class="cls-2" x="8.8" y="10.4" width="1.6" height="3.2"/><rect class="cls-2" x="10.4" y="8.8" width="2.6" height="1.6"/><rect class="cls-2" x="5.6" y="8.8" width="3.2" height="1.6"/><rect class="cls-2" x="8.8" y="8.8" width="1.6" height="1.6"/><rect class="cls-2" x="10.4" y="13.6" width="3.2" height="1.6"/><rect class="cls-2" x="15.2" y="13.6" width="3.2" height="1.6"/><rect class="cls-2" x="5.6" y="13.6" width="3.2" height="1.6"/><rect class="cls-2" x="8.8" y="13.6" width="1.6" height="1.6"/><rect class="cls-2" x="13.6" y="15.2" width="1.6" height="3.02"/><rect class="cls-2" x="13.6" y="11" width="1.6" height="2.6"/><rect class="cls-2" x="13.6" y="13.6" width="1.6" height="1.6"/><path class="cls-3" d="M19.23,18.84H4.83V5.24H13V4H4.8a.8.8,0,0,0-.8.8V19.2a.8.8,0,0,0,.8.8H19.2a.8.8,0,0,0,.8-.8V11h-.77Z"/><path class="cls-3" d="M4.83,18.84h14.4V11H18.4v6.82a.4.4,0,0,1-.4.4H15.2v.18H13.6v-.18H10.4v.18H8.8v-.18H6a.4.4,0,0,1-.4-.4V6.58a.8.8,0,0,1,.8-.8H8.8V5.6h1.6v.18H13V5.24H4.83Z"/><rect class="cls-3" x="8.8" y="5.6" width="1.6" height="0.18"/><rect class="cls-3" x="8.8" y="18.22" width="1.6" height="0.18"/><rect class="cls-3" x="13.6" y="18.22" width="1.6" height="0.18"/><rect class="cls-1" x="13" y="10.4" width="0.6" height="0.6"/><rect class="cls-1" x="13" y="5.78" width="0.6" height="3.02"/><rect class="cls-1" x="13" y="8.8" width="0.6" height="1.6"/><rect class="cls-3" x="17.5" y="2" width="2" height="7"/><rect class="cls-3" x="15" y="4.5" width="7" height="2"/></g></svg>