<svg xmlns="http://www.w3.org/2000/svg" viewBox="0 0 24 24"><defs><style>.cls-1{fill:#125da9;}.cls-2{fill:#494949;}</style></defs><g id="Layer_2" data-name="Layer 2"><rect class="cls-1" x="17.5" y="2" width="2" height="7"/><rect class="cls-1" x="15" y="4.5" width="7" height="2"/><path class="cls-2" d="M11.35,21.87H4.68a.77.77,0,0,1-.77-.75V4.84a.77.77,0,0,1,.77-.75h6.67v2H6v13.7h5.37Z"/><path class="cls-2" d="M13.11,20.35h-.83V6h.83a1,1,0,0,1,1,1V19.35A1,1,0,0,1,13.11,20.35Z"/><rect class="cls-2" x="7.11" y="11.97" width="7" height="2.05"/><path class="cls-2" d="M8.92,15a1.86,1.86,0,1,0,1.86,1.86A1.86,1.86,0,0,0,8.92,15Zm0,2.36a.5.5,0,1,1,.5-.5A.5.5,0,0,1,8.92,17.35Z"/><path class="cls-2" d="M8.92,7.16A1.86,1.86,0,1,0,10.78,9,1.86,1.86,0,0,0,8.92,7.16Zm0,2.36a.5.5,0,0,1-.5-.5.5.5,0,0,1,1,0A.5.5,0,0,1,8.92,9.52Z"/></g></svg>