<svg xmlns="http://www.w3.org/2000/svg" viewBox="0 0 24 24"><defs><style>.cls-1{fill:#fff;}.cls-2{fill:#30ab9f;}.cls-3{fill:#494949;}.cls-4{fill:none;stroke:#9fb1dc;stroke-linecap:round;stroke-linejoin:round;stroke-width:0;opacity:0;}.cls-5{fill:#125da9;}</style></defs><g id="Layer_2" data-name="Layer 2"><circle class="cls-1" cx="12" cy="12.93" r="2.67"/><path class="cls-2" d="M12,16.67a3.74,3.74,0,1,1,3.74-3.74A3.75,3.75,0,0,1,12,16.67Zm0-5.34a1.6,1.6,0,1,0,1.6,1.6A1.6,1.6,0,0,0,12,11.33Z"/><rect class="cls-3" x="2" y="16.04" width="20" height="2"/><rect class="cls-4" x="2" y="2" width="20" height="20"/><rect class="cls-5" x="17.5" y="2" width="2" height="7"/><rect class="cls-5" x="15" y="4.5" width="7" height="2"/><line class="cls-3" x1="3.88" y1="17.02" x2="8.12" y2="21.26"/><rect class="cls-3" x="5" y="16.14" width="2" height="6" transform="translate(-11.78 9.85) rotate(-45)"/><line class="cls-3" x1="9.88" y1="17.16" x2="14.12" y2="21.4"/><rect class="cls-3" x="11" y="16.28" width="2" height="6" transform="translate(-10.12 14.13) rotate(-45)"/><line class="cls-3" x1="15.88" y1="17.16" x2="20.12" y2="21.4"/><rect class="cls-3" x="17" y="16.28" width="2" height="6" transform="translate(-8.36 18.37) rotate(-45)"/></g></svg>