<svg xmlns="http://www.w3.org/2000/svg" viewBox="0 0 24 24"><defs><style>.cls-1{fill:#30ab9f;}.cls-2{opacity:0.99;}.cls-3{fill:#494949;}.cls-4{fill:#fff;}.cls-5{fill:none;}</style></defs><g id="Layer_2" data-name="Layer 2"><rect class="cls-1" x="10.75" y="5.85" width="2.2" height="12" transform="translate(-4.91 11.85) rotate(-45)"/><path class="cls-1" d="M9,6.08A2.41,2.41,0,0,0,6.15,4a2.55,2.55,0,0,0-1.65,1A2.49,2.49,0,0,0,4,6.92,2.41,2.41,0,0,0,6.85,9a2.62,2.62,0,0,0,1.39-.71,3.88,3.88,0,0,0,.26-.31A2.49,2.49,0,0,0,9,6.08Zm-1.67,1a1,1,0,0,1-1.4.24,1,1,0,0,1-.2-1.4,1,1,0,0,1,1.4-.24A1,1,0,0,1,7.3,7.08Z"/><path class="cls-1" d="M20,17.08a2.41,2.41,0,0,0-2.82-2,2.55,2.55,0,0,0-1.65,1A2.49,2.49,0,0,0,15,17.92a2.41,2.41,0,0,0,2.82,2,2.62,2.62,0,0,0,1.39-.71,3.88,3.88,0,0,0,.26-.31A2.49,2.49,0,0,0,20,17.08Zm-1.67,1a1,1,0,0,1-1.4.24,1,1,0,0,1-.2-1.4,1,1,0,0,1,1.4-.24A1,1,0,0,1,18.3,18.08Z"/><g class="cls-2"><polygon class="cls-3" points="12.07 9.21 12 12 14.79 11.93 22 4.72 19.28 2 12.07 9.21"/></g><g class="cls-2"><polygon class="cls-4" points="12.95 9.69 12.91 11.09 14.31 11.05 20.71 4.64 19.36 3.29 12.95 9.69"/></g><polygon class="cls-3" points="12.82 11.61 14.22 11.56 21.53 4.25 20.86 3.57 12.82 11.61"/><polygon class="cls-3" points="12.21 9.49 12.89 11.53 14.25 10.18 12.89 8.82 12.21 9.49"/><rect class="cls-5" x="12" width="12" height="13"/></g></svg>