<svg xmlns="http://www.w3.org/2000/svg" viewBox="0 0 24 24"><defs><style>.cls-1{opacity:0.99;}.cls-2{fill:#494949;}.cls-3{fill:#fff;}</style></defs><g id="Layer_2" data-name="Layer 2"><g class="cls-1"><polygon class="cls-2" points="12.07 9.21 12 12 14.79 11.93 22 4.72 19.28 2 12.07 9.21"/></g><g class="cls-1"><polygon class="cls-3" points="12.95 9.69 12.91 11.09 14.31 11.05 20.71 4.64 19.36 3.29 12.95 9.69"/></g><polygon class="cls-2" points="12.82 11.61 14.22 11.56 21.53 4.25 20.86 3.57 12.82 11.61"/><polygon class="cls-2" points="12.21 9.49 12.89 11.53 14.25 10.18 12.89 8.82 12.21 9.49"/><polyline class="cls-2" points="4 12 20 12 20 14 4 14"/><polyline class="cls-2" points="4 20 20 20 20 22 4 22"/><polyline class="cls-2" points="2 12 4 12 4 22 2 22"/><rect class="cls-2" x="20" y="12" width="2" height="10"/><circle class="cls-2" cx="17" cy="17" r="2"/><circle class="cls-2" cx="7" cy="17" r="2"/><circle class="cls-2" cx="12" cy="17" r="2"/></g></svg>