<svg xmlns="http://www.w3.org/2000/svg" viewBox="0 0 24 24"><defs><style>.cls-1{fill:#444;}.cls-2{opacity:0.99;}.cls-3{fill:#494949;}.cls-4{fill:#fff;}</style></defs><g id="Layer_2" data-name="Layer 2"><path class="cls-1" d="M9.44,22H2.77A.77.77,0,0,1,2,21.25V5a.76.76,0,0,1,.77-.74H9.44v2H4.07V20H9.44Z"/><path class="cls-1" d="M11.2,20.48h-.83V6.12h.83a1,1,0,0,1,1,1V19.48A1,1,0,0,1,11.2,20.48Z"/><rect class="cls-1" x="5.2" y="12.1" width="7" height="2.05"/><path class="cls-1" d="M7,15.12A1.87,1.87,0,1,0,8.87,17,1.86,1.86,0,0,0,7,15.12Zm0,2.36a.5.5,0,0,1-.5-.5.5.5,0,0,1,.5-.5.51.51,0,0,1,.5.5A.5.5,0,0,1,7,17.48Z"/><path class="cls-1" d="M7,7.29A1.87,1.87,0,1,0,8.87,9.16,1.87,1.87,0,0,0,7,7.29ZM7,9.66a.5.5,0,0,1-.5-.5.5.5,0,0,1,.5-.5.5.5,0,0,1,.5.5A.51.51,0,0,1,7,9.66Z"/><g class="cls-2"><polygon class="cls-3" points="12.07 9.21 12 12 14.79 11.93 22 4.72 19.28 2 12.07 9.21"/></g><g class="cls-2"><polygon class="cls-4" points="12.95 9.69 12.91 11.09 14.31 11.05 20.71 4.64 19.36 3.29 12.95 9.69"/></g><polygon class="cls-3" points="12.82 11.61 14.22 11.56 21.53 4.25 20.86 3.57 12.82 11.61"/><polygon class="cls-3" points="12.21 9.49 12.89 11.53 14.25 10.18 12.89 8.82 12.21 9.49"/></g></svg>