<svg xmlns="http://www.w3.org/2000/svg" viewBox="0 0 24 24"><defs><style>.cls-1{fill:none;stroke:#9fb1dc;stroke-linecap:round;stroke-linejoin:round;stroke-width:0;opacity:0;}.cls-2{opacity:0.99;}.cls-3{fill:#494949;}.cls-4{fill:#fff;}</style></defs><g id="Layer_2" data-name="Layer 2"><rect class="cls-1" x="2" y="2" width="20" height="20"/><g class="cls-2"><polygon class="cls-3" points="12.07 9.21 12 12 14.79 11.93 22 4.72 19.28 2 12.07 9.21"/></g><g class="cls-2"><polygon class="cls-4" points="12.95 9.69 12.91 11.09 14.31 11.05 20.71 4.64 19.36 3.29 12.95 9.69"/></g><polygon class="cls-3" points="12.82 11.61 14.22 11.56 21.53 4.25 20.86 3.57 12.82 11.61"/><polygon class="cls-3" points="12.21 9.49 12.89 11.53 14.25 10.18 12.89 8.82 12.21 9.49"/><polygon class="cls-3" points="12 14 12 12 2 12 2 14 6 14 6 20 2 20 2 22 6 22 8 22 12 22 12 20 8 20 8 14 12 14"/></g></svg>