<svg xmlns="http://www.w3.org/2000/svg" viewBox="0 0 24 24"><defs><style>.cls-1{fill:#2b2b2b;}.cls-2{fill:#a4a3a3;}.cls-3{fill:#f4f4f4;}.cls-4{fill:#821f82;}.cls-5,.cls-9{fill:none;}.cls-5{stroke:#9fb1dc;stroke-linecap:round;stroke-linejoin:round;stroke-width:0;opacity:0;}.cls-6{opacity:0.99;}.cls-7{fill:#494949;}.cls-8{fill:#fff;}</style></defs><g id="Layer_2" data-name="Layer 2"><line class="cls-1" x1="9.77" y1="15.28" x2="22.5" y2="15.28"/><rect class="cls-2" x="9.77" y="13.95" width="12.73" height="2.67"/><line class="cls-1" x1="9.77" y1="15.28" x2="9.77" y2="22"/><rect class="cls-2" x="8.44" y="15.28" width="2.65" height="6.72"/><line class="cls-1" x1="2.27" y1="9.91" x2="9.77" y2="15.28"/><polygon class="cls-2" points="9 16.37 1.5 10.99 3.04 8.82 10.53 14.2 9 16.37"/><ellipse class="cls-3" cx="9.77" cy="15.28" rx="2.65" ry="2.67"/><path class="cls-4" d="M9.77,19a3.74,3.74,0,1,1,3.71-3.74A3.73,3.73,0,0,1,9.77,19Zm0-5.34a1.6,1.6,0,1,0,1.59,1.6A1.6,1.6,0,0,0,9.77,13.68Z"/><rect class="cls-5" x="2.64" y="2" width="19.86" height="20"/><g class="cls-6"><polygon class="cls-7" points="12.07 9.21 12 12 14.79 11.93 22 4.72 19.28 2 12.07 9.21"/></g><g class="cls-6"><polygon class="cls-8" points="12.95 9.69 12.91 11.09 14.31 11.05 20.71 4.64 19.36 3.29 12.95 9.69"/></g><polygon class="cls-7" points="12.82 11.61 14.22 11.56 21.53 4.25 20.86 3.57 12.82 11.61"/><polygon class="cls-7" points="12.21 9.49 12.89 11.53 14.25 10.18 12.89 8.82 12.21 9.49"/><rect class="cls-9" x="12" width="12" height="13"/></g></svg>