<svg xmlns="http://www.w3.org/2000/svg" viewBox="0 0 24 24"><defs><style>.cls-1{fill:#1a8d85;}.cls-2{fill:#f4f4f4;}.cls-3{fill:#df9215;}.cls-4,.cls-8{fill:none;}.cls-4{stroke:#9fb1dc;stroke-linecap:round;stroke-linejoin:round;stroke-width:0;opacity:0;}.cls-5{opacity:0.99;}.cls-6{fill:#494949;}.cls-7{fill:#fff;}</style></defs><g id="Layer_2" data-name="Layer 2"><rect class="cls-1" x="7.6" y="16.74" width="2.67" height="5.26"/><path class="cls-1" d="M16.25,19.46c-2.6,0-6.15-.34-8.59-1.94C3.11,14.53,3.13,5.78,3.15,4.8l2.66,0c0,2.28.49,8.6,3.32,10.45,3.33,2.19,10,1.34,10.11,1.33l.34,2.65A29.47,29.47,0,0,1,16.25,19.46Z"/><circle class="cls-2" cx="4.75" cy="5.08" r="1.75"/><path class="cls-1" d="M4.75,7.64A2.56,2.56,0,1,1,7.3,5.08,2.56,2.56,0,0,1,4.75,7.64Zm0-3.51a1,1,0,1,0,1,1A1,1,0,0,0,4.75,4.13Z"/><circle class="cls-2" cx="9.06" cy="16.37" r="1.75"/><path class="cls-3" d="M9.06,18.92a2.55,2.55,0,1,1,2.55-2.55A2.55,2.55,0,0,1,9.06,18.92Zm0-3.5a1,1,0,1,0,.95,1A.95.95,0,0,0,9.06,15.42Z"/><circle class="cls-2" cx="19.14" cy="17.95" r="1.75"/><path class="cls-1" d="M19.14,20.5A2.56,2.56,0,1,1,21.7,18,2.56,2.56,0,0,1,19.14,20.5Zm0-3.51a1,1,0,1,0,1,1A1,1,0,0,0,19.14,17Z"/><rect class="cls-4" x="2" y="2" width="20" height="20"/><g class="cls-5"><polygon class="cls-6" points="12.07 9.21 12 12 14.79 11.93 22 4.72 19.28 2 12.07 9.21"/></g><g class="cls-5"><polygon class="cls-7" points="12.95 9.69 12.91 11.09 14.31 11.05 20.71 4.64 19.36 3.29 12.95 9.69"/></g><polygon class="cls-6" points="12.82 11.61 14.22 11.56 21.53 4.25 20.86 3.57 12.82 11.61"/><polygon class="cls-6" points="12.21 9.49 12.89 11.53 14.25 10.18 12.89 8.82 12.21 9.49"/><rect class="cls-8" x="12" width="12" height="13"/></g></svg>