<svg xmlns="http://www.w3.org/2000/svg" viewBox="0 0 24 24"><defs><style>.cls-1{opacity:0.99;}.cls-2{fill:#494949;}.cls-3{fill:#fff;}.cls-4{fill:#a4a3a3;}.cls-5{fill:#125da9;}.cls-6{fill:none;}</style></defs><g id="Layer_2" data-name="Layer 2"><g class="cls-1"><polygon class="cls-2" points="11.67 9.5 11.59 12.41 14.5 12.33 22 4.83 19.17 2 11.67 9.5"/></g><g class="cls-1"><polygon class="cls-3" points="12.59 10 12.54 11.46 14 11.41 20.66 4.75 19.25 3.34 12.59 10"/></g><polygon class="cls-2" points="12.45 12 13.91 11.95 21.52 4.34 20.81 3.64 12.45 12"/><polygon class="cls-2" points="11.81 9.8 12.52 11.92 13.94 10.51 12.52 9.09 11.81 9.8"/><rect class="cls-3" x="5.6" y="10.4" width="3.2" height="3.2"/><rect class="cls-3" x="15.2" y="13" width="3.2" height="0.6"/><path class="cls-3" d="M15.2,18.22H18a.4.4,0,0,0,.4-.4V15.2H15.2Z"/><path class="cls-3" d="M8.8,5.78H6.4a.8.8,0,0,0-.8.8V8.8H8.8Z"/><rect class="cls-3" x="10.4" y="5.78" width="0.6" height="3.02"/><path class="cls-3" d="M5.6,15.2v2.62a.4.4,0,0,0,.4.4H8.8v-3Z"/><rect class="cls-3" x="10.4" y="15.2" width="3.2" height="3.02"/><polygon class="cls-3" points="11 10.4 10.4 10.4 10.4 13.6 13.6 13.6 13.6 13 11 13 11 10.4"/><rect class="cls-4" x="8.8" y="10.4" width="1.6" height="3.2"/><rect class="cls-4" x="8.8" y="15.2" width="1.6" height="3.02"/><rect class="cls-4" x="8.8" y="5.78" width="1.6" height="3.02"/><rect class="cls-4" x="5.6" y="8.8" width="3.2" height="1.6"/><rect class="cls-4" x="10.4" y="8.8" width="0.6" height="1.6"/><rect class="cls-4" x="8.8" y="8.8" width="1.6" height="1.6"/><rect class="cls-4" x="10.4" y="13.6" width="3.2" height="1.6"/><rect class="cls-4" x="15.2" y="13.6" width="3.2" height="1.6"/><rect class="cls-4" x="5.6" y="13.6" width="3.2" height="1.6"/><rect class="cls-4" x="8.8" y="13.6" width="1.6" height="1.6"/><rect class="cls-4" x="13.6" y="13" width="1.6" height="0.6"/><rect class="cls-4" x="13.6" y="15.2" width="1.6" height="3.02"/><rect class="cls-4" x="13.6" y="13.6" width="1.6" height="1.6"/><path class="cls-5" d="M19.23,18.84H4.83V5.24H11V4H4.8a.8.8,0,0,0-.8.8V19.2a.8.8,0,0,0,.8.8H19.2a.8.8,0,0,0,.8-.8V13h-.77Z"/><path class="cls-5" d="M4.83,18.84h14.4V13H18.4v4.82a.4.4,0,0,1-.4.4H15.2v.18H13.6v-.18H10.4v.18H8.8v-.18H6a.4.4,0,0,1-.4-.4V6.58a.8.8,0,0,1,.8-.8H8.8V5.6h1.6v.18H11V5.24H4.83Z"/><rect class="cls-5" x="8.8" y="5.6" width="1.6" height="0.18"/><rect class="cls-5" x="8.8" y="18.22" width="1.6" height="0.18"/><rect class="cls-5" x="13.6" y="18.22" width="1.6" height="0.18"/><g class="cls-1"><polygon class="cls-2" points="12.07 9.21 12 12 14.79 11.93 22 4.72 19.28 2 12.07 9.21"/></g><g class="cls-1"><polygon class="cls-3" points="12.95 9.69 12.91 11.09 14.31 11.05 20.71 4.64 19.36 3.29 12.95 9.69"/></g><polygon class="cls-2" points="12.82 11.61 14.22 11.56 21.53 4.25 20.86 3.57 12.82 11.61"/><polygon class="cls-2" points="12.21 9.49 12.89 11.53 14.25 10.18 12.89 8.82 12.21 9.49"/><rect class="cls-6" x="12" width="12" height="13"/></g></svg>