<svg xmlns="http://www.w3.org/2000/svg" viewBox="0 0 24 24"><defs><style>.cls-1{fill:#cb1517;}.cls-2{fill:#494949;}</style></defs><g id="Layer_2" data-name="Layer 2"><rect class="cls-1" x="3.84" y="15.1" width="16" height="1"/><rect class="cls-1" x="19.1" y="14" width="2" height="3"/><rect class="cls-1" x="3" y="14" width="2" height="3"/><path class="cls-2" d="M17.25,8h-4.5a1,1,0,0,0-1,1v5h1.5V9.5h1V13h1.5V9.49h1V14h1.5V9A1,1,0,0,0,17.25,8Z"/><path class="cls-2" d="M10.75,9.5V8h-4a1,1,0,0,0-1,1v4a1,1,0,0,0,1,1h4V12.5H7.25v-3Z"/></g></svg>