<svg xmlns="http://www.w3.org/2000/svg" viewBox="0 0 24 24"><defs><style>.cls-1,.cls-2{fill:none;}.cls-1{stroke:#9fb1dc;stroke-linecap:round;stroke-linejoin:round;stroke-width:0;opacity:0;}.cls-3{fill:#1a8d85;}.cls-4{opacity:0.99;}.cls-5{fill:#494949;}.cls-6{fill:#fff;}</style></defs><g id="Layer_2" data-name="Layer 2"><rect class="cls-1" x="2.01" y="2" width="19.99" height="19.99"/><rect class="cls-2" width="24" height="24"/><path class="cls-3" d="M17.29,14.58l.62-2.44a.9.9,0,0,0-.42-1,.92.92,0,0,0-1.11.22L13.79,14l1-3.66a.83.83,0,0,0-.4-1,.86.86,0,0,0-1,.15l-2.75,2.74,1-3.7a.81.81,0,0,0-.41-.95.85.85,0,0,0-1,.15L7.48,10.46l.29-1.09a.88.88,0,0,0-.39-1l-3.62-2L3.11,7.41,6.45,9.28l-.67,2.45a.82.82,0,0,0,.41,1,.85.85,0,0,0,1-.15L9.93,9.81l-1,3.68a.83.83,0,0,0,.4,1,.86.86,0,0,0,1-.15l2.75-2.74-1,3.69a.83.83,0,0,0,.41,1,.88.88,0,0,0,1-.16l2.74-2.78L16,14.51a.87.87,0,0,0,.4,1l3.87,2.17.65-1.11Z"/><g class="cls-4"><polygon class="cls-5" points="12.07 9.21 12 12 14.79 11.93 22 4.72 19.28 2 12.07 9.21"/></g><g class="cls-4"><polygon class="cls-6" points="12.95 9.69 12.91 11.09 14.31 11.05 20.71 4.64 19.36 3.29 12.95 9.69"/></g><polygon class="cls-5" points="12.82 11.61 14.22 11.56 21.53 4.25 20.86 3.57 12.82 11.61"/><polygon class="cls-5" points="12.21 9.49 12.89 11.53 14.25 10.18 12.89 8.82 12.21 9.49"/><rect class="cls-2" x="12" width="12" height="13"/></g></svg>