<svg xmlns="http://www.w3.org/2000/svg" viewBox="0 0 24 24"><defs><style>.cls-1,.cls-5{fill:none;}.cls-1{stroke:#9fb1dc;stroke-linecap:round;stroke-linejoin:round;stroke-width:0;opacity:0;}.cls-2{fill:#494949;}.cls-3{opacity:0.99;}.cls-4{fill:#fff;}</style></defs><g id="Layer_2" data-name="Layer 2"><rect class="cls-1" x="3.53" y="0.62" width="20" height="20"/><polygon class="cls-2" points="13.77 12 13.77 10 1.77 10 1.77 12 6.77 12 6.77 20 1.77 20 1.77 22 6.77 22 8.77 22 13.77 22 13.77 20 8.77 20 8.77 12 13.77 12"/><rect class="cls-2" x="6.77" y="18" width="2" height="2"/><rect class="cls-2" x="8.77" y="10" width="2" height="2"/><rect class="cls-2" x="3.77" y="18" width="2" height="1"/><polygon class="cls-2" points="10.77 13 9.77 13 9.77 19 13.77 19 14.77 19 14.77 20 15.77 20 15.77 18 10.77 18 10.77 13"/><polygon class="cls-2" points="3.77 8 3.77 9 13.77 9 14.77 9 14.77 10 15.77 10 15.77 8 3.77 8"/><rect class="cls-1" y="0.03" width="20" height="20"/><g class="cls-3"><polygon class="cls-2" points="12.07 9.21 12 12 14.79 11.93 22 4.72 19.28 2 12.07 9.21"/></g><g class="cls-3"><polygon class="cls-4" points="12.95 9.69 12.91 11.09 14.31 11.05 20.71 4.64 19.36 3.29 12.95 9.69"/></g><polygon class="cls-2" points="12.82 11.61 14.22 11.56 21.53 4.25 20.86 3.57 12.82 11.61"/><polygon class="cls-2" points="12.21 9.49 12.89 11.53 14.25 10.18 12.89 8.82 12.21 9.49"/><rect class="cls-5" x="12" width="12" height="13"/></g></svg>