<svg xmlns="http://www.w3.org/2000/svg" viewBox="0 0 24 24"><defs><style>.cls-1{fill:#1a8d85;}.cls-2{fill:#f4f4f4;}.cls-3{fill:#df9215;}.cls-4{fill:none;stroke:#9fb1dc;stroke-linecap:round;stroke-linejoin:round;stroke-width:0;opacity:0;}.cls-5{fill:#125da9;}</style></defs><g id="Layer_2" data-name="Layer 2"><rect class="cls-1" x="7.6" y="16.24" width="2.67" height="5.26"/><path class="cls-1" d="M16.25,19c-2.6,0-6.15-.34-8.59-1.94C3.11,14,3.13,5.28,3.15,4.3l2.66,0c0,2.28.49,8.6,3.32,10.45,3.33,2.19,10,1.34,10.11,1.33l.34,2.65A29.47,29.47,0,0,1,16.25,19Z"/><circle class="cls-2" cx="4.75" cy="4.58" r="1.75"/><path class="cls-1" d="M4.75,7.14A2.56,2.56,0,1,1,7.3,4.58,2.56,2.56,0,0,1,4.75,7.14Zm0-3.51a1,1,0,1,0,1,1A1,1,0,0,0,4.75,3.63Z"/><circle class="cls-2" cx="9.06" cy="15.87" r="1.75"/><path class="cls-3" d="M9.06,18.42a2.55,2.55,0,1,1,2.55-2.55A2.55,2.55,0,0,1,9.06,18.42Zm0-3.5a1,1,0,1,0,.95.95A.95.95,0,0,0,9.06,14.92Z"/><circle class="cls-2" cx="19.14" cy="17.45" r="1.75"/><path class="cls-1" d="M19.14,20a2.56,2.56,0,1,1,2.56-2.55A2.56,2.56,0,0,1,19.14,20Zm0-3.51a1,1,0,1,0,1,1A1,1,0,0,0,19.14,16.49Z"/><rect class="cls-4" x="2" y="1.5" width="20" height="20"/><rect class="cls-5" x="17.5" y="2" width="2" height="7"/><rect class="cls-5" x="15" y="4.5" width="7" height="2"/></g></svg>