<svg xmlns="http://www.w3.org/2000/svg" viewBox="0 0 24 24"><defs><style>.cls-1{fill:none;}.cls-2{fill:#648fff;}.cls-3{fill:#fcfc45;}.cls-4{fill:#fe6100;}.cls-5{fill:#494949;}</style></defs><g id="Layer_2" data-name="Layer 2"><g id="contours-filled"><rect id="Rectangle_698" data-name="Rectangle 698" class="cls-1" width="24" height="24"/><g id="Group_3472" data-name="Group 3472"><path id="Path_453" data-name="Path 453" class="cls-2" d="M12.53,16.74H4.1v3.15H19.89V4.1H16.74v8.43A4.22,4.22,0,0,1,12.53,16.74Z"/><path id="Path_454" data-name="Path 454" class="cls-3" d="M14.63,12.53V4.1H11.47V9.37a2.08,2.08,0,0,1-2.09,2.1H4.1v3.16h8.43A2.1,2.1,0,0,0,14.63,12.53Z"/><path id="Path_455" data-name="Path 455" class="cls-4" d="M9.37,4.1H4.2a.13.13,0,0,0-.1.1V9.37H9.37Z"/><path id="Path_456" data-name="Path 456" class="cls-4" d="M4.2,4.1H4.1v.1A.13.13,0,0,1,4.2,4.1Z"/><path id="Path_457" data-name="Path 457" class="cls-5" d="M4.2,2H4.11A2.11,2.11,0,0,0,2,4.09V4.2A2.19,2.19,0,0,1,4.2,2Z"/><path id="Path_458" data-name="Path 458" class="cls-5" d="M19.89,2H4.2A2.19,2.19,0,0,0,2,4.2V19.89A2.1,2.1,0,0,0,4.09,22h15.8A2.1,2.1,0,0,0,22,19.91V4.11A2.11,2.11,0,0,0,19.91,2ZM4.11,4.2V4.11H9.37V9.37H4.11Zm5.26,7.27a2.08,2.08,0,0,0,2.1-2.09h0V4.11h3.16v8.42a2.1,2.1,0,0,1-2.1,2.1H4.11V11.47Zm10.52,8.42H4.11V16.74h8.42a4.22,4.22,0,0,0,4.21-4.21V4.11h3.15Z"/></g></g></g></svg>