<svg xmlns="http://www.w3.org/2000/svg" viewBox="0 0 24 24"><defs><style>.cls-1{fill:#fe6100;}.cls-1,.cls-2,.cls-3{stroke:#494949;stroke-miterlimit:10;}.cls-2{fill:#fcfc45;}.cls-3{fill:#648fff;}.cls-4{fill:#494949;}.cls-5{fill:#fff;}</style></defs><g id="Layer_2" data-name="Layer 2"><path class="cls-1" d="M14.9,7.85l-1.79-.67L7.32,13,8,14.75a.63.63,0,0,0,.38.37l1.78.67L15.94,10l-.67-1.79A.64.64,0,0,0,14.9,7.85Z"/><polygon class="cls-2" points="9 5.64 5.78 8.85 7.32 12.96 13.11 7.18 9 5.64"/><polygon class="cls-2" points="10.15 15.79 14.27 17.34 17.48 14.12 15.94 10.01 10.15 15.79"/><polygon class="cls-3" points="9 5.64 4.88 4.09 4.24 4.74 5.78 8.85 9 5.64"/><polygon class="cls-3" points="17.48 14.12 14.27 17.34 18.38 18.88 19.02 18.23 17.48 14.12"/><circle class="cls-4" cx="4" cy="4" r="2"/><rect class="cls-5" x="3.33" y="3.33" width="1.33" height="1.33"/><circle class="cls-4" cx="20" cy="20" r="2"/><rect class="cls-5" x="19.33" y="19.33" width="1.33" height="1.33"/></g></svg>