<svg xmlns="http://www.w3.org/2000/svg" viewBox="0 0 24 24"><defs><style>.cls-1{fill:none;}.cls-2{fill:#494949;}.cls-3,.cls-4{fill:#125da9;}.cls-3{stroke:#125da9;stroke-miterlimit:10;stroke-width:0.5px;}.cls-4{fill-rule:evenodd;}</style></defs><g id="Layer_2" data-name="Layer 2"><path id="Path_387" data-name="Path 387" class="cls-1" d="M0,0H24V24H0Z"/><path id="Path_388" data-name="Path 388" class="cls-2" d="M15,8H6V9.5L10.88,14,6,18.5V20h9V17.75H9.75L13.5,14,9.75,10.25H15Z"/><path class="cls-3" d="M11.31,6.38l-1.05-.74a6.31,6.31,0,0,1,3.91-2.82,5.2,5.2,0,0,1,3.94,1l.62.42L18,5.33l-.64-.43a4,4,0,0,0-3-.82A5,5,0,0,0,11.31,6.38Z"/><polygon class="cls-4" points="20.45 2 16.39 7.37 22 7.39 20.45 2"/></g></svg>