<svg xmlns="http://www.w3.org/2000/svg" viewBox="0 0 24 24"><defs><style>.cls-1{fill:#fff;}.cls-2{fill:#a4a3a3;}.cls-3,.cls-5,.cls-6{fill:#125da9;}.cls-4{fill:#df9215;}.cls-5{stroke:#125da9;stroke-miterlimit:10;stroke-width:0.5px;}.cls-6{fill-rule:evenodd;}</style></defs><g id="Layer_2" data-name="Layer 2"><rect class="cls-1" x="10.4" y="9" width="3.2" height="0.8"/><rect class="cls-1" x="10.4" y="11.4" width="3.2" height="3.2"/><path class="cls-1" d="M8.8,9H8V6.78H6.84A2,2,0,0,1,5.6,7.9V9.8H8.8Z"/><rect class="cls-1" x="5.6" y="11.4" width="3.2" height="3.2"/><path class="cls-1" d="M5.6,16.2v1.9a2,2,0,0,1,1.24,1.12h2v-3Z"/><rect class="cls-1" x="15.2" y="11.4" width="3.2" height="3.2"/><rect class="cls-1" x="15.2" y="9" width="3.2" height="0.8"/><rect class="cls-1" x="10.4" y="16.2" width="3.2" height="3.02"/><path class="cls-1" d="M15.2,19.22h2A2,2,0,0,1,18.4,18.1V16.2H15.2Z"/><rect class="cls-2" x="8.8" y="16.2" width="1.6" height="3.02"/><rect class="cls-2" x="8.8" y="9" width="1.6" height="0.8"/><rect class="cls-2" x="8.8" y="11.4" width="1.6" height="3.2"/><rect class="cls-2" x="5.6" y="9.8" width="3.2" height="1.6"/><rect class="cls-2" x="15.2" y="9.8" width="3.2" height="1.6"/><rect class="cls-2" x="10.4" y="9.8" width="3.2" height="1.6"/><rect class="cls-2" x="8.8" y="9.8" width="1.6" height="1.6"/><rect class="cls-2" x="5.6" y="14.6" width="3.2" height="1.6"/><rect class="cls-2" x="10.4" y="14.6" width="3.2" height="1.6"/><rect class="cls-2" x="15.2" y="14.6" width="3.2" height="1.6"/><rect class="cls-2" x="8.8" y="14.6" width="1.6" height="1.6"/><rect class="cls-2" x="13.6" y="11.4" width="1.6" height="3.2"/><rect class="cls-2" x="13.6" y="9" width="1.6" height="0.8"/><rect class="cls-2" x="13.6" y="16.2" width="1.6" height="3.02"/><rect class="cls-2" x="13.6" y="9.8" width="1.6" height="1.6"/><rect class="cls-2" x="13.6" y="14.6" width="1.6" height="1.6"/><path class="cls-3" d="M17,19.84H7A1,1,0,0,1,7,20a2,2,0,0,1-.28,1H17.28A2,2,0,0,1,17,20,1,1,0,0,1,17,19.84Z"/><path class="cls-3" d="M19.23,9v9a2,2,0,0,1,.77.26V9Z"/><path class="cls-3" d="M4.83,8A1.84,1.84,0,0,1,4,7.72V18.28A1.84,1.84,0,0,1,4.83,18Z"/><path class="cls-3" d="M7,6.24H8V5H6.72A2,2,0,0,1,7,6,1.94,1.94,0,0,1,7,6.24Z"/><path class="cls-3" d="M5.6,18.1V7.9A2,2,0,0,1,5,8L4.83,8V18L5,18A2,2,0,0,1,5.6,18.1Z"/><path class="cls-3" d="M15.2,19.22v.18H13.6v-.18H10.4v.18H8.8v-.18h-2a1.87,1.87,0,0,1,.14.62H17a1.87,1.87,0,0,1,.14-.62Z"/><path class="cls-3" d="M18.4,9.8v8.3A2,2,0,0,1,19,18l.23,0V9H18.4Z"/><path class="cls-3" d="M8,6.78V6.24H7a2.38,2.38,0,0,1-.14.54Z"/><rect class="cls-3" x="8.8" y="19.22" width="1.6" height="0.18"/><rect class="cls-3" x="13.6" y="19.22" width="1.6" height="0.18"/><path class="cls-1" d="M19,20.77a.76.76,0,0,0,.23-1.49v.56h-1a.9.9,0,0,0,0,.16A.76.76,0,0,0,19,20.77Z"/><path class="cls-1" d="M19.23,19.28a.59.59,0,0,0-.23-.05.77.77,0,0,0-.74.61h1Z"/><path class="cls-4" d="M20.39,20A1.39,1.39,0,0,1,18,21h-.76A2,2,0,1,0,20,18.28V19A1.39,1.39,0,0,1,20.39,20Z"/><path class="cls-4" d="M17.16,19.22h.69a1.36,1.36,0,0,1,.55-.46V18.1A2,2,0,0,0,17.16,19.22Z"/><path class="cls-4" d="M19.23,18.64A1.37,1.37,0,0,1,20,19v-.76a2,2,0,0,0-.77-.26Z"/><path class="cls-4" d="M17.61,20a.88.88,0,0,1,0-.16H17A1,1,0,0,0,17,20a2,2,0,0,0,.28,1H18A1.4,1.4,0,0,1,17.61,20Z"/><path class="cls-4" d="M17.16,19.22a1.87,1.87,0,0,0-.14.62h.61a1.49,1.49,0,0,1,.22-.62Z"/><path class="cls-4" d="M18.4,18.1v.66a1.33,1.33,0,0,1,.6-.15.85.85,0,0,1,.23,0V18L19,18A2,2,0,0,0,18.4,18.1Z"/><path class="cls-4" d="M19.2,21H18a1.39,1.39,0,0,0,2-2V20.2A.8.8,0,0,1,19.2,21Z"/><path class="cls-4" d="M17.85,19.22H18a.4.4,0,0,0,.4-.4v-.06A1.36,1.36,0,0,0,17.85,19.22Z"/><path class="cls-4" d="M19.77,20a.77.77,0,0,1-1.54,0,.9.9,0,0,1,0-.16h-.63a.88.88,0,0,0,0,.16A1.4,1.4,0,0,0,18,21H19.2a.8.8,0,0,0,.8-.8V19a1.37,1.37,0,0,0-.77-.4v.64A.76.76,0,0,1,19.77,20Z"/><path class="cls-4" d="M18.4,18.76v.06a.4.4,0,0,1-.4.4h-.15a1.49,1.49,0,0,0-.22.62h.63a.77.77,0,0,1,.74-.61.59.59,0,0,1,.23.05v-.64a.85.85,0,0,0-.23,0A1.33,1.33,0,0,0,18.4,18.76Z"/><path class="cls-1" d="M5,5.23a.76.76,0,0,0-.17,1.51v-.5h.89a.6.6,0,0,0,0-.24A.76.76,0,0,0,5,5.23Z"/><path class="cls-1" d="M4.83,6.74a1,1,0,0,0,.17,0,.75.75,0,0,0,.72-.53H4.83Z"/><path class="cls-4" d="M3.61,6A1.39,1.39,0,0,1,6,5h.76A2,2,0,1,0,4,7.72V7A1.39,1.39,0,0,1,3.61,6Z"/><path class="cls-4" d="M6.84,6.78H6.4a.73.73,0,0,0-.3.06,1.54,1.54,0,0,1-.38.34.78.78,0,0,0-.12.4V7.9A2,2,0,0,0,6.84,6.78Z"/><path class="cls-4" d="M4.83,7.37A1.43,1.43,0,0,1,4,7v.76A1.84,1.84,0,0,0,4.83,8Z"/><path class="cls-4" d="M6.39,6a1,1,0,0,1,0,.24H7A1.94,1.94,0,0,0,7,6a2,2,0,0,0-.28-1H6A1.4,1.4,0,0,1,6.39,6Z"/><path class="cls-4" d="M5.6,7.9V7.58a.78.78,0,0,1,.12-.4A1.35,1.35,0,0,1,5,7.39l-.17,0V8L5,8A2,2,0,0,0,5.6,7.9Z"/><path class="cls-4" d="M6.4,6.78h.44A2.38,2.38,0,0,0,7,6.24H6.36a1.36,1.36,0,0,1-.26.6A.73.73,0,0,1,6.4,6.78Z"/><path class="cls-4" d="M4.8,5H6A1.39,1.39,0,0,0,4,7V5.8A.8.8,0,0,1,4.8,5Z"/><path class="cls-4" d="M6.1,6.84a.84.84,0,0,0-.38.34A1.54,1.54,0,0,0,6.1,6.84Z"/><path class="cls-4" d="M4.23,6A.77.77,0,0,1,5.77,6a.6.6,0,0,1,0,.24h.64a1,1,0,0,0,0-.24A1.4,1.4,0,0,0,6,5H4.8a.8.8,0,0,0-.8.8V7a1.43,1.43,0,0,0,.83.41V6.74A.76.76,0,0,1,4.23,6Z"/><path class="cls-4" d="M5.72,7.18a.84.84,0,0,1,.38-.34,1.36,1.36,0,0,0,.26-.6H5.72A.75.75,0,0,1,5,6.77a1,1,0,0,1-.17,0v.63l.17,0A1.35,1.35,0,0,0,5.72,7.18Z"/><path class="cls-1" d="M4.23,20a.77.77,0,0,0,1.54,0,.9.9,0,0,0,0-.16H4.83v-.58A.76.76,0,0,0,4.23,20Z"/><path class="cls-1" d="M5.74,19.84A.77.77,0,0,0,5,19.23a1,1,0,0,0-.17,0v.58Z"/><path class="cls-4" d="M5,21.39A1.39,1.39,0,0,1,4,19v-.76A2,2,0,1,0,6.72,21H6A1.39,1.39,0,0,1,5,21.39Z"/><path class="cls-4" d="M5.6,18.1v.66a1.36,1.36,0,0,1,.55.46h.69A2,2,0,0,0,5.6,18.1Z"/><path class="cls-4" d="M7,19.84H6.37a.88.88,0,0,1,0,.16A1.4,1.4,0,0,1,6,21h.76A2,2,0,0,0,7,20,1,1,0,0,0,7,19.84Z"/><path class="cls-4" d="M4.83,18.63V18a1.84,1.84,0,0,0-.83.26V19A1.43,1.43,0,0,1,4.83,18.63Z"/><path class="cls-4" d="M5.6,18.76V18.1A2,2,0,0,0,5,18l-.17,0v.61l.17,0A1.33,1.33,0,0,1,5.6,18.76Z"/><path class="cls-4" d="M6.15,19.22a1.49,1.49,0,0,1,.22.62H7a1.87,1.87,0,0,0-.14-.62Z"/><path class="cls-4" d="M4,20.2V19a1.39,1.39,0,0,0,2,2H4.8A.8.8,0,0,1,4,20.2Z"/><path class="cls-4" d="M5.6,18.76v.06a.4.4,0,0,0,.4.4h.15A1.36,1.36,0,0,0,5.6,18.76Z"/><path class="cls-4" d="M5.77,20a.77.77,0,1,1-.94-.74v-.63A1.43,1.43,0,0,0,4,19V20.2a.8.8,0,0,0,.8.8H6a1.4,1.4,0,0,0,.43-1,.88.88,0,0,0,0-.16H5.74A.9.9,0,0,1,5.77,20Z"/><path class="cls-4" d="M6,19.22a.4.4,0,0,1-.4-.4v-.06a1.33,1.33,0,0,0-.6-.15l-.17,0v.63a1,1,0,0,1,.17,0,.77.77,0,0,1,.74.61h.63a1.49,1.49,0,0,0-.22-.62Z"/><rect class="cls-1" x="8" y="6.78" width="0.8" height="2.22"/><path class="cls-5" d="M11.31,6.38l-1.05-.74a6.31,6.31,0,0,1,3.91-2.82,5.2,5.2,0,0,1,3.94,1l.62.42L18,5.33l-.64-.43a4,4,0,0,0-3-.82A5,5,0,0,0,11.31,6.38Z"/><polygon class="cls-6" points="20.45 2 16.39 7.37 22 7.39 20.45 2"/></g></svg>