<svg xmlns="http://www.w3.org/2000/svg" viewBox="0 0 24 24"><defs><style>.cls-1,.cls-2{fill:#125da9;}.cls-1{stroke:#125da9;stroke-miterlimit:10;stroke-width:0.5px;}.cls-2{fill-rule:evenodd;}.cls-3{fill:none;stroke:#9fb1dc;stroke-linecap:round;stroke-linejoin:round;stroke-width:0;opacity:0;}.cls-4{fill:#494949;}</style></defs><g id="Layer_2" data-name="Layer 2"><path class="cls-1" d="M11.31,6.38l-1.05-.74a6.31,6.31,0,0,1,3.91-2.82,5.2,5.2,0,0,1,3.94,1l.62.42L18,5.33l-.64-.43a4,4,0,0,0-3-.82A5,5,0,0,0,11.31,6.38Z"/><polygon class="cls-2" points="20.45 2 16.39 7.37 22 7.39 20.45 2"/><rect class="cls-3" y="0.07" width="24.03" height="24.03"/><rect class="cls-4" x="3.14" y="19.85" width="17.71" height="2.15"/><polygon class="cls-4" points="11.66 14.28 11.66 9 8.58 9 8.58 14.31 5.41 14.34 10.17 19.3 14.82 14.25 11.66 14.28"/></g></svg>