<svg xmlns="http://www.w3.org/2000/svg" viewBox="0 0 24 24"><defs><style>.cls-1,.cls-2{fill:#125da9;}.cls-1{stroke:#125da9;stroke-miterlimit:10;stroke-width:0.5px;}.cls-2{fill-rule:evenodd;}.cls-3{fill:#494949;}</style></defs><g id="Layer_2" data-name="Layer 2"><path class="cls-1" d="M11.31,6.38l-1.05-.74a6.31,6.31,0,0,1,3.91-2.82,5.2,5.2,0,0,1,3.94,1l.62.42L18,5.33l-.64-.43a4,4,0,0,0-3-.82A5,5,0,0,0,11.31,6.38Z"/><polygon class="cls-2" points="20.45 2 16.39 7.37 22 7.39 20.45 2"/><polygon class="cls-3" points="17 13 17 11 7 11 7 13 11 13 11 19 7 19 7 21 11 21 13 21 17 21 17 19 13 19 13 13 17 13"/></g></svg>