<svg xmlns="http://www.w3.org/2000/svg" viewBox="0 0 24 24"><defs><style>.cls-1{fill:#494949;}.cls-2{fill:#444;}.cls-2,.cls-3,.cls-4{fill-rule:evenodd;}.cls-3{fill:#1a8d85;}.cls-4{fill:#fff;}.cls-5{fill:none;stroke:#9fb1dc;stroke-linecap:round;stroke-linejoin:round;stroke-width:0;opacity:0;}</style></defs><g id="Layer_2" data-name="Layer 2"><rect class="cls-1" x="2" y="6.52" width="20" height="1.87"/><polygon class="cls-2" points="13.48 10.27 10.76 10.27 10.74 15.71 8.02 15.7 12.08 22.51 16.18 15.72 13.46 15.71 13.48 10.27"/><path class="cls-3" d="M8.11,4.7a4.86,4.86,0,1,1,1,6.82A4.87,4.87,0,0,1,8.11,4.7Z"/><path class="cls-1" d="M12,4A3.63,3.63,0,1,1,8.38,7.63,3.64,3.64,0,0,1,12,4m0-2a5.63,5.63,0,1,0,5.63,5.63A5.62,5.62,0,0,0,12,2Z"/><path class="cls-4" d="M9.71,6.61a1.56,1.56,0,1,1,1.56,1.56A1.56,1.56,0,0,1,9.71,6.61Z"/><rect class="cls-5" x="2" y="2" width="20" height="20"/></g></svg>