<svg xmlns="http://www.w3.org/2000/svg" viewBox="0 0 24 24"><defs><style>.cls-1{fill:#c9c9c9;}.cls-2{fill:#cc1517;}.cls-3{fill:#30ab9f;}.cls-4{fill:#4c4c4c;}.cls-5{fill:#494949;}.cls-6{fill:#fff;}</style></defs><g id="Layer_2" data-name="Layer 2"><path class="cls-1" d="M14,4H5A1,1,0,0,0,4,5V19a1,1,0,0,0,1,1h6.5V13h1v7H19a1,1,0,0,0,1-1V12H13.5V11H20V10H14Zm-1.5,8h-1V11h1Z"/><rect class="cls-2" x="11.5" y="13" width="1" height="7"/><rect class="cls-3" x="13.5" y="11" width="6.5" height="1"/><rect class="cls-4" x="11.5" y="11" width="1" height="1"/><path class="cls-5" d="M21.5,19.9A1.1,1.1,0,0,1,20.4,21H3.6a1.1,1.1,0,0,1-1.1-1.1V4.1A1.1,1.1,0,0,1,3.6,3H14V2H4A2,2,0,0,0,2,4V20a2,2,0,0,0,2,2H20a2,2,0,0,0,2-2V10h-.5Z"/><path class="cls-5" d="M2.5,4.1V19.9A1.1,1.1,0,0,0,3.6,21H20.4a1.1,1.1,0,0,0,1.1-1.1V10H20v1h.5v1H20v7a1,1,0,0,1-1,1H5a1,1,0,0,1-1-1V5A1,1,0,0,1,5,4h9V3H3.6A1.1,1.1,0,0,0,2.5,4.1Z"/><rect class="cls-5" x="20" y="11" width="0.5" height="1"/><rect class="cls-5" x="11" y="6" width="2" height="11" transform="translate(-4.62 11.85) rotate(-45)"/><polygon class="cls-5" points="22 5.63 19.75 5.63 19.75 2 18.25 2 18.25 5.63 16 5.63 19 8.63 22 5.63"/><circle class="cls-5" cx="8" cy="8" r="3"/><rect class="cls-6" x="7" y="7" width="2" height="2.01"/><circle class="cls-5" cx="16" cy="16" r="3"/><rect class="cls-6" x="15" y="15" width="2" height="2.01"/></g></svg>