<svg xmlns="http://www.w3.org/2000/svg" viewBox="0 0 24 24"><defs><style>.cls-1{fill:#c9c9c9;}.cls-2{fill:#cc1517;}.cls-3{fill:#30ab9f;}.cls-4{fill:#4c4c4c;}.cls-5,.cls-8{fill:#494949;}.cls-6{fill:#afafaf;}.cls-7{fill:#125da9;}.cls-8{fill-rule:evenodd;}.cls-9{fill:#fff;}</style></defs><g id="Layer_2" data-name="Layer 2"><path class="cls-1" d="M13.5,11H13V4H5A1,1,0,0,0,4,5V19a1,1,0,0,0,1,1h6.5V13h1v7H19a1,1,0,0,0,1-1V12H13.5Zm-1,1h-1V11h1Z"/><rect class="cls-2" x="11.5" y="13" width="1" height="7"/><rect class="cls-3" x="13.5" y="11" width="6.5" height="1"/><rect class="cls-4" x="11.5" y="11" width="1" height="1"/><path class="cls-5" d="M21.5,19.9A1.1,1.1,0,0,1,20.4,21H3.6a1.1,1.1,0,0,1-1.1-1.1V4.1A1.1,1.1,0,0,1,3.6,3H13V2H4A2,2,0,0,0,2,4V20a2,2,0,0,0,2,2H20a2,2,0,0,0,2-2V11h-.5Z"/><path class="cls-5" d="M2.5,4.1V19.9A1.1,1.1,0,0,0,3.6,21H20.4a1.1,1.1,0,0,0,1.1-1.1V11h-1v1H20v7a1,1,0,0,1-1,1H5a1,1,0,0,1-1-1V5A1,1,0,0,1,5,4h8V3H3.6A1.1,1.1,0,0,0,2.5,4.1Z"/><rect class="cls-5" x="20" y="11" width="0.5" height="1"/><polygon class="cls-6" points="13 8.24 7.98 7.55 7.98 16.47 16.46 16.47 16.47 11 13 11 13 8.24"/><polygon class="cls-7" points="16.96 16.97 7.48 16.97 7.48 6.97 13 7.74 13 7.24 6.98 6.4 6.98 17.47 17.46 17.47 17.47 11 16.97 11 16.96 16.97"/><polygon class="cls-7" points="7.48 16.97 16.96 16.97 16.97 11 16.47 11 16.46 16.47 7.98 16.47 7.98 7.55 13 8.24 13 7.74 7.48 6.97 7.48 16.97"/><path class="cls-8" d="M6.54,5.56a2,2,0,1,0,2.83,0A2,2,0,0,0,6.54,5.56Z"/><rect class="cls-9" x="7.46" y="6.47" width="1" height="1"/><path class="cls-8" d="M6.58,14.72a2,2,0,0,0,2.83,2.83,2,2,0,0,0-2.83-2.83Z"/><rect class="cls-9" x="7.5" y="15.63" width="1" height="1"/><path class="cls-8" d="M15.58,14.72a2,2,0,0,0,2.83,2.83,2,2,0,0,0-2.83-2.83Z"/><rect class="cls-9" x="16.5" y="15.63" width="1" height="1"/><polygon class="cls-5" points="21.5 5.63 20 5.63 19.75 5.63 19.75 4.36 19.75 3 19.75 2 18.25 2 18.25 3 18.25 4 18.25 5.63 16 5.63 19 8.63 20 7.63 21.5 6.13 22 5.63 21.5 5.63"/></g></svg>