<svg xmlns="http://www.w3.org/2000/svg" viewBox="0 0 24 24"><defs><style>.cls-1{fill:#c9c9c9;}.cls-2{fill:#cc1517;}.cls-3{fill:#30ab9f;}.cls-4{fill:#4c4c4c;}.cls-5{fill:#494949;}.cls-6{fill:none;stroke:#9fb1dc;stroke-linecap:round;stroke-linejoin:round;stroke-width:0;opacity:0;}</style></defs><g id="Layer_2" data-name="Layer 2"><path class="cls-1" d="M13.5,11H13V4H5A1,1,0,0,0,4,5V19a1,1,0,0,0,1,1h6.5V13h1v7H19a1,1,0,0,0,1-1V12H13.5Zm-1,1h-1V11h1Z"/><rect class="cls-2" x="11.5" y="13" width="1" height="7"/><rect class="cls-3" x="13.5" y="11" width="6.5" height="1"/><rect class="cls-4" x="11.5" y="11" width="1" height="1"/><path class="cls-5" d="M21.5,19.9A1.1,1.1,0,0,1,20.4,21H3.6a1.1,1.1,0,0,1-1.1-1.1V4.1A1.1,1.1,0,0,1,3.6,3H13V2H4A2,2,0,0,0,2,4V20a2,2,0,0,0,2,2H20a2,2,0,0,0,2-2V11h-.5Z"/><path class="cls-5" d="M2.5,4.1V19.9A1.1,1.1,0,0,0,3.6,21H20.4a1.1,1.1,0,0,0,1.1-1.1V11h-1v1H20v7a1,1,0,0,1-1,1H5a1,1,0,0,1-1-1V5A1,1,0,0,1,5,4h8V3H3.6A1.1,1.1,0,0,0,2.5,4.1Z"/><rect class="cls-5" x="20" y="11" width="0.5" height="1"/><polygon class="cls-6" points="8.8 19.86 28.8 19.86 27.8 -0.14 8.8 -0.14 8.8 19.86"/><path class="cls-5" d="M18,2a4,4,0,1,0,4,4A4,4,0,0,0,18,2Zm.89,2.67H17.11V2.89h1.78Zm0,4.44H17.11V5.56h1.78Z"/></g></svg>