<svg xmlns="http://www.w3.org/2000/svg" viewBox="0 0 24 24"><defs><style>.cls-1{fill:#c9c9c9;}.cls-2{fill:#cc1517;}.cls-3{fill:#30ab9f;}.cls-4{fill:#4c4c4c;}.cls-5{fill:#494949;}.cls-6{fill:#fff;}</style></defs><g id="Layer_2" data-name="Layer 2"><path class="cls-1" d="M14,4H5A1,1,0,0,0,4,5V19a1,1,0,0,0,1,1h6.5V14h1v6H19a1,1,0,0,0,1-1V13H13.5V12H20V10H14Zm-1.5,9h-1V12h1Z"/><rect class="cls-2" x="11.5" y="14" width="1" height="6"/><rect class="cls-3" x="13.5" y="12" width="6.5" height="1"/><rect class="cls-4" x="11.5" y="12" width="1" height="1"/><path class="cls-5" d="M21.5,20.9a1,1,0,0,1-.22.62A2,2,0,0,0,22,20V10h-.5Z"/><path class="cls-5" d="M21.5,10H20v2h.5v1H20v6a1,1,0,0,1-1,1H12.5v1h-1V20H5a1,1,0,0,1-1-1V5A1,1,0,0,1,5,4H3.6A1.1,1.1,0,0,0,2.5,5.1V20.9a1,1,0,0,0,.22.62A2,2,0,0,0,4,22H20a2,2,0,0,0,1.28-.48,1,1,0,0,0,.22-.62Z"/><rect class="cls-5" x="20" y="12" width="0.5" height="1"/><path class="cls-1" d="M3.6,22H4a2,2,0,0,1-1.28-.48A1.08,1.08,0,0,0,3.6,22Z"/><path class="cls-1" d="M20.4,22a1.08,1.08,0,0,0,.88-.48A2,2,0,0,1,20,22Z"/><path class="cls-5" d="M2.5,5.1A1.1,1.1,0,0,1,3.6,4H14V2H4A2,2,0,0,0,2,4V20a2,2,0,0,0,.72,1.52,1,1,0,0,1-.22-.62Z"/><rect class="cls-5" x="11.5" y="20" width="1" height="1"/><polygon class="cls-5" points="21.5 5.63 20 5.63 19.75 5.63 19.75 4.36 19.75 4 19.75 2 18.25 2 18.25 4 18.25 5.63 16 5.63 19 8.63 20 7.63 21.5 6.13 22 5.63 21.5 5.63"/><circle class="cls-5" cx="12" cy="12" r="3"/><rect class="cls-6" x="11" y="11" width="2" height="2.01"/></g></svg>