<svg xmlns="http://www.w3.org/2000/svg" viewBox="0 0 24 24"><defs><style>.cls-1{font-size:10.08px;fill:#1d1d1b;font-family:ArialMT, Arial;}.cls-2{fill:#494949;}.cls-3{fill:#fff;}</style></defs><g id="Layer_2" data-name="Layer 2"><text class="cls-1" transform="translate(4.68 13.98)">cm</text><rect class="cls-2" x="3" y="3" width="18" height="18"/><path class="cls-2" d="M20,2H4A2,2,0,0,0,2,4V20a2,2,0,0,0,2,2H20a2,2,0,0,0,2-2V4A2,2,0,0,0,20,2Zm0,17a1,1,0,0,1-1,1H5a1,1,0,0,1-1-1V5A1,1,0,0,1,5,4H19a1,1,0,0,1,1,1Z"/><path class="cls-3" d="M14.44,20.77H7.77A.76.76,0,0,1,7,20V3.75A.77.77,0,0,1,7.77,3h6.67V5H9.07v13.7h5.37Z"/><path class="cls-3" d="M16.2,19.26h-.83V4.9h.83a1,1,0,0,1,1,1V18.26A1,1,0,0,1,16.2,19.26Z"/><rect class="cls-3" x="10.2" y="10.87" width="7" height="2.05"/><path class="cls-3" d="M12,13.9a1.86,1.86,0,1,0,1.86,1.86A1.86,1.86,0,0,0,12,13.9Zm0,2.36a.5.5,0,0,1,0-1,.5.5,0,0,1,0,1Z"/><path class="cls-3" d="M12,6.07a1.86,1.86,0,1,0,1.86,1.86A1.86,1.86,0,0,0,12,6.07Zm0,2.36a.5.5,0,1,1,0-1,.5.5,0,0,1,0,1Z"/></g></svg>