<svg xmlns="http://www.w3.org/2000/svg" viewBox="0 0 24 24"><defs><style>.cls-1{fill:#494949;}.cls-2{fill:none;stroke:#9fb1dc;stroke-linecap:round;stroke-linejoin:round;stroke-width:0;opacity:0;}.cls-3{fill:#aaa;}.cls-4{fill:#f4f4f4;}</style></defs><g id="Layer_2" data-name="Layer 2"><rect class="cls-1" x="3" y="3" width="18" height="18"/><rect class="cls-2" x="2" y="2.11" width="20" height="19.44"/><path class="cls-1" d="M20,2H4A2,2,0,0,0,2,4V20a2,2,0,0,0,2,2H20a2,2,0,0,0,2-2V4A2,2,0,0,0,20,2Zm0,17a1,1,0,0,1-1,1H5a1,1,0,0,1-1-1V5A1,1,0,0,1,5,4H19a1,1,0,0,1,1,1Z"/><rect class="cls-3" x="9.2" y="6.4" width="1.4" height="11.2"/><rect class="cls-3" x="6.4" y="9.2" width="11.2" height="1.4"/><rect class="cls-3" x="6.4" y="13.4" width="11.2" height="1.4"/><rect class="cls-3" x="13.4" y="6.4" width="1.4" height="11.2"/><path class="cls-4" d="M5,5.7V18.3a.7.7,0,0,0,.7.7H18.3a.7.7,0,0,0,.7-.7V5.7a.7.7,0,0,0-.7-.7H5.7A.7.7,0,0,0,5,5.7ZM17.25,17.44H6.75a.35.35,0,0,1-.35-.35V7.26a.7.7,0,0,1,.7-.7H17.25a.35.35,0,0,1,.35.35V17.09A.35.35,0,0,1,17.25,17.44Z"/></g></svg>