<svg xmlns="http://www.w3.org/2000/svg" viewBox="0 0 24 24"><defs><style>.cls-1{fill:#494949;}.cls-2{fill:#fff;}</style></defs><g id="Layer_2" data-name="Layer 2"><rect class="cls-1" x="3" y="3" width="18" height="18"/><path class="cls-1" d="M20,2H4A2,2,0,0,0,2,4V20a2,2,0,0,0,2,2H20a2,2,0,0,0,2-2V4A2,2,0,0,0,20,2Zm0,17a1,1,0,0,1-1,1H5a1,1,0,0,1-1-1V5A1,1,0,0,1,5,4H19a1,1,0,0,1,1,1Z"/><path class="cls-2" d="M4.5,7V17a2,2,0,0,0,2,2h11a2,2,0,0,0,2-2V7a2,2,0,0,0-2-2H6.5A2,2,0,0,0,4.5,7ZM16.35,17H7.65a1,1,0,0,1-1-1V8a1,1,0,0,1,1-1h8.7a1,1,0,0,1,1,1v8A1,1,0,0,1,16.35,17Z"/><rect class="cls-2" x="11.5" y="13" width="1" height="4"/><rect class="cls-2" x="15" y="9.5" width="1" height="4" transform="translate(27 -4) rotate(90)"/><rect class="cls-2" x="11.5" y="11" width="1" height="1"/></g></svg>