<svg xmlns="http://www.w3.org/2000/svg" viewBox="0 0 24 24"><defs><style>.cls-1,.cls-3{fill:#494949;}.cls-2{fill:#f4f4f4;}.cls-3{stroke:#fff;stroke-linecap:round;stroke-linejoin:round;}</style></defs><g id="Layer_2" data-name="Layer 2"><rect class="cls-1" x="3" y="3" width="18" height="18"/><rect class="cls-2" x="3.29" y="16.85" width="17.71" height="2.15"/><path class="cls-1" d="M20,2H4A2,2,0,0,0,2,4V20a2,2,0,0,0,2,2H20a2,2,0,0,0,2-2V4A2,2,0,0,0,20,2Zm0,17a1,1,0,0,1-1,1H5a1,1,0,0,1-1-1V5A1,1,0,0,1,5,4H19a1,1,0,0,1,1,1Z"/><polygon class="cls-3" points="11.8 11.28 11.8 4 8.72 4 8.72 11.31 5.55 11.34 10.31 16.3 14.97 11.25 11.8 11.28"/></g></svg>