<svg xmlns="http://www.w3.org/2000/svg" viewBox="0 0 24 24"><defs><style>.cls-1{fill:#494949;}.cls-2{fill:none;stroke:#9fb1dc;stroke-linecap:round;stroke-linejoin:round;stroke-width:0;opacity:0;}.cls-3{fill:#30ab9f;}.cls-4{fill:#f4f4f4;}.cls-5{fill:#df9215;}</style></defs><g id="Layer_2" data-name="Layer 2"><rect class="cls-1" x="3" y="3" width="18" height="18"/><path class="cls-1" d="M20,2H4A2,2,0,0,0,2,4V20a2,2,0,0,0,2,2H20a2,2,0,0,0,2-2V4A2,2,0,0,0,20,2Zm0,17a1,1,0,0,1-1,1H5a1,1,0,0,1-1-1V5A1,1,0,0,1,5,4H19a1,1,0,0,1,1,1Z"/><rect class="cls-2" x="2" y="2.28" width="20" height="19.44"/><path class="cls-3" d="M13.65,16.87a9.58,9.58,0,0,1-4.1-.77c-3.4-1.68-4.07-7.56-4.13-8.23l2.12-.19c.15,1.49,1,5.58,3,6.57s5.65.42,6.89.12l.51,2A20.61,20.61,0,0,1,13.65,16.87Z"/><ellipse class="cls-4" cx="6.47" cy="8.71" rx="1.75" ry="1.7"/><path class="cls-3" d="M6.46,11.2A2.53,2.53,0,0,1,4,9.1,2.5,2.5,0,0,1,6.07,6.26,2.56,2.56,0,0,1,9,8.33H9a2.5,2.5,0,0,1-2.13,2.83A1.75,1.75,0,0,1,6.46,11.2Zm0-3.41H6.32a.92.92,0,0,0-.79,1.06,1,1,0,0,0,1.88-.29h0A1,1,0,0,0,6.47,7.79Z"/><ellipse class="cls-4" cx="17.41" cy="15.21" rx="1.75" ry="1.7"/><path class="cls-3" d="M17.4,17.69a2.58,2.58,0,0,1-1.49-.47,2.49,2.49,0,0,1-1-1.62,2.41,2.41,0,0,1,.46-1.85,2.57,2.57,0,0,1,4.58,1.08h0a2.39,2.39,0,0,1-.46,1.84,2.51,2.51,0,0,1-1.66,1A2.83,2.83,0,0,1,17.4,17.69Zm0-3.4h-.15a1,1,0,0,0-.62.37.89.89,0,0,0-.17.69.91.91,0,0,0,.38.6,1.05,1.05,0,0,0,.71.17,1,1,0,0,0,.62-.37.9.9,0,0,0,.17-.69A.94.94,0,0,0,17.41,14.29Z"/><rect class="cls-3" x="9.1" y="15.13" width="1.6" height="5.34"/><ellipse class="cls-4" cx="9.9" cy="15.21" rx="1.75" ry="1.7"/><path class="cls-5" d="M9.9,17.69A2.53,2.53,0,0,1,7.38,15.6,2.49,2.49,0,0,1,9.5,12.76a2.55,2.55,0,0,1,2.92,2.07h0A2.43,2.43,0,0,1,12,16.67a2.51,2.51,0,0,1-1.66,1Zm0-3.4H9.75A.93.93,0,0,0,9,15.36a1,1,0,0,0,1.09.77.92.92,0,0,0-.15-1.84Z"/><rect class="cls-2" x="2" y="2.11" width="20" height="19.44"/></g></svg>