<svg xmlns="http://www.w3.org/2000/svg" viewBox="0 0 24 24"><defs><style>.cls-1{fill:#494949;}.cls-2{fill:#2b2b2b;}.cls-3{fill:#f4f4f4;}.cls-4{fill:#30ab9f;}.cls-5{fill:none;stroke:#9fb1dc;stroke-linecap:round;stroke-linejoin:round;stroke-width:0;opacity:0;}</style></defs><g id="Layer_2" data-name="Layer 2"><rect class="cls-1" x="3.19" y="3.19" width="18" height="18"/><line class="cls-2" x1="12.49" y1="13.68" x2="20.79" y2="13.68"/><rect class="cls-3" x="12.49" y="12.64" width="8.3" height="2.07"/><line class="cls-2" x1="12.49" y1="13.68" x2="12.49" y2="22.55"/><rect class="cls-3" x="11.43" y="13.68" width="2.13" height="8.88"/><line class="cls-2" x1="3.96" y1="8.64" x2="12.49" y2="13.68"/><polygon class="cls-3" points="11.94 14.56 1.41 8.53 2.52 6.75 13.05 12.79 11.94 14.56"/><ellipse class="cls-3" cx="12.49" cy="13.68" rx="2.67" ry="2.59"/><path class="cls-4" d="M12.49,17.31a3.63,3.63,0,1,1,3.74-3.63A3.68,3.68,0,0,1,12.49,17.31Zm0-5.19a1.56,1.56,0,1,0,1.6,1.56A1.58,1.58,0,0,0,12.49,12.12Z"/><rect class="cls-5" x="2.19" y="4.47" width="20" height="19.44"/><path class="cls-1" d="M20.19,2.19h-16a2,2,0,0,0-2,2v16a2,2,0,0,0,2,2h16a2,2,0,0,0,2-2v-16A2,2,0,0,0,20.19,2.19Zm0,17a1,1,0,0,1-1,1h-14a1,1,0,0,1-1-1v-14a1,1,0,0,1,1-1h14a1,1,0,0,1,1,1Z"/><rect class="cls-5" x="2.19" y="2.47" width="20" height="19.44"/></g></svg>