<svg xmlns="http://www.w3.org/2000/svg" viewBox="0 0 24 24"><defs><style>.cls-1{fill:#494949;}.cls-2{fill:#fff;}.cls-3{fill:none;stroke:#9fb1dc;stroke-linecap:round;stroke-linejoin:round;stroke-width:0;opacity:0;}</style></defs><g id="Layer_2" data-name="Layer 2"><rect class="cls-1" x="3" y="3" width="18" height="18"/><path class="cls-1" d="M20,2H4A2,2,0,0,0,2,4V20a2,2,0,0,0,2,2H20a2,2,0,0,0,2-2V4A2,2,0,0,0,20,2Zm0,17a1,1,0,0,1-1,1H5a1,1,0,0,1-1-1V5A1,1,0,0,1,5,4H19a1,1,0,0,1,1,1Z"/><polygon class="cls-2" points="19.3 7.23 19.3 5.23 7.3 5.23 7.3 7.23 12.3 7.23 12.3 15.23 7.3 15.23 7.3 17.23 12.3 17.23 14.3 17.23 19.3 17.23 19.3 15.23 14.3 15.23 14.3 7.23 19.3 7.23"/><rect class="cls-3" x="7.06" y="-2.15" width="20" height="20"/><polygon class="cls-2" points="4.8 19.73 4.8 16.73 9.8 16.73 9.8 9.73 4.8 9.73 4.8 6.73 17.8 6.73 17.8 9.73 12.8 9.73 12.8 16.73 17.8 16.73 17.8 19.73 4.8 19.73"/><path class="cls-1" d="M17.3,7.23v2h-5v8h5v2H5.3v-2h5v-8h-5v-2h12m1-1H4.3v4h5v6h-5v4h14v-4h-5v-6h5v-4Z"/><rect class="cls-3" x="3.53" y="-2.74" width="20" height="20"/></g></svg>