<svg xmlns="http://www.w3.org/2000/svg" viewBox="0 0 24 24"><defs><style>.cls-1{fill:#494949;}.cls-2{fill:#fff;}</style></defs><g id="Layer_2" data-name="Layer 2"><rect class="cls-1" x="3" y="3" width="18" height="18"/><path class="cls-1" d="M20,2H4A2,2,0,0,0,2,4V20a2,2,0,0,0,2,2H20a2,2,0,0,0,2-2V4A2,2,0,0,0,20,2Zm0,17a1,1,0,0,1-1,1H5a1,1,0,0,1-1-1V5A1,1,0,0,1,5,4H19a1,1,0,0,1,1,1Z"/><polyline class="cls-2" points="5.2 8 18.8 8 18.8 9.6 5.2 9.6"/><polyline class="cls-2" points="5.2 14.4 18.8 14.4 18.8 16 5.2 16"/><polyline class="cls-2" points="3.5 8 5.2 8 5.2 16 3.5 16"/><rect class="cls-2" x="18.8" y="8" width="1.7" height="8"/><ellipse class="cls-2" cx="16.25" cy="12" rx="1.7" ry="1.6"/><ellipse class="cls-2" cx="7.75" cy="12" rx="1.7" ry="1.6"/><ellipse class="cls-2" cx="12" cy="12" rx="1.7" ry="1.6"/></g></svg>