<svg xmlns="http://www.w3.org/2000/svg" viewBox="0 0 24 24"><defs><style>.cls-1{fill:#494949;}.cls-2{fill:#fff;}</style></defs><g id="Layer_2" data-name="Layer 2"><rect class="cls-1" x="3" y="3" width="18" height="18"/><path class="cls-1" d="M20,2H4A2,2,0,0,0,2,4V20a2,2,0,0,0,2,2H20a2,2,0,0,0,2-2V4A2,2,0,0,0,20,2Zm0,17a1,1,0,0,1-1,1H5a1,1,0,0,1-1-1V5A1,1,0,0,1,5,4H19a1,1,0,0,1,1,1Z"/><polygon class="cls-2" points="18 8 18 6 6 6 6 8 11 8 11 16 6 16 6 18 11 18 13 18 18 18 18 16 13 16 13 8 18 8"/></g></svg>