<svg xmlns="http://www.w3.org/2000/svg" viewBox="0 0 24 24"><defs><style>.cls-1{fill:#fe6100;}.cls-2{fill:#494949;}.cls-3{fill:#fcfc45;}.cls-4{fill:#648fff;}</style></defs><g id="Layer_2" data-name="Layer 2"><circle class="cls-1" cx="16.5" cy="7" r="4"/><path class="cls-2" d="M16.5,11.5A4.5,4.5,0,1,1,21,7,4.51,4.51,0,0,1,16.5,11.5Zm0-8A3.5,3.5,0,1,0,20,7,3.5,3.5,0,0,0,16.5,3.5Z"/><circle class="cls-3" cx="10" cy="14.5" r="2.5"/><path class="cls-2" d="M10,17.5a3,3,0,1,1,3-3A3,3,0,0,1,10,17.5Zm0-5a2,2,0,1,0,2,2A2,2,0,0,0,10,12.5Z"/><circle class="cls-4" cx="5" cy="19.5" r="1.5"/><path class="cls-2" d="M5,21.5a2,2,0,1,1,2-2A2,2,0,0,1,5,21.5Zm0-3a1,1,0,1,0,1,1A1,1,0,0,0,5,18.5Z"/></g></svg>