<svg xmlns="http://www.w3.org/2000/svg" viewBox="0 0 24 24"><defs><style>.cls-1{fill:#2b2b2b;}.cls-2{fill:#494949;}.cls-3{fill:#f4f4f4;}.cls-4{fill:#1a8d85;}.cls-5{fill:#444;fill-rule:evenodd;}.cls-6{fill:none;stroke:#9fb1dc;stroke-linecap:round;stroke-linejoin:round;stroke-width:0;opacity:0;}</style></defs><g id="Layer_2" data-name="Layer 2"><line class="cls-1" x1="10" y1="15" x2="10" y2="22"/><rect class="cls-2" x="9" y="15" width="2" height="7"/><line class="cls-1" x1="3.46" y1="8.46" x2="10.54" y2="15.54"/><rect class="cls-2" x="6" y="7" width="2" height="10" transform="translate(-6.44 8.46) rotate(-45)"/><line class="cls-1" x1="11.97" y1="15.73" x2="21.97" y2="15.73"/><rect class="cls-2" x="11.97" y="14.73" width="10" height="2"/><circle class="cls-3" cx="10.49" cy="15.53" r="2.5"/><path class="cls-4" d="M10.49,19a3.5,3.5,0,1,1,3.5-3.5A3.5,3.5,0,0,1,10.49,19Zm0-5a1.5,1.5,0,1,0,1.5,1.5A1.5,1.5,0,0,0,10.49,14Z"/><polygon class="cls-5" points="22.11 5.13 20.08 3.03 15.88 7.13 13.84 5.02 11.66 13.3 19.96 11.34 17.92 9.23 22.11 5.13"/><rect class="cls-6" x="2.63" y="2.28" width="19.63" height="19.72"/></g></svg>