<svg xmlns="http://www.w3.org/2000/svg" viewBox="0 0 24 24"><defs><style>.cls-1,.cls-2{fill:#125da9;}.cls-2{fill-rule:evenodd;}.cls-3,.cls-4{fill:none;}.cls-3{stroke:#9fb1dc;stroke-linecap:round;stroke-linejoin:round;stroke-width:0;opacity:0;}.cls-5{fill:#494949;}</style></defs><g id="Layer_1" data-name="Layer 1"><path class="cls-1" d="M11.78,5l-1-.67A5.76,5.76,0,0,1,14.4,1.75,4.7,4.7,0,0,1,18,2.69l.57.38L17.9,4l-.57-.39A3.66,3.66,0,0,0,14.6,2.9,4.64,4.64,0,0,0,11.78,5Z"/><polygon class="cls-2" points="20.13 1 16.42 5.9 21.54 5.92 20.13 1"/><rect class="cls-3" x="1" y="1.06" width="21.94" height="21.94"/></g><g id="Layer_2" data-name="Layer 2"><path class="cls-4" d="M.26.32h24v24H.26Z"/><path class="cls-5" d="M20,8H12L10,6H4A2,2,0,0,0,2,8V20a2,2,0,0,0,2,2H20a2,2,0,0,0,2-2V10A2,2,0,0,0,20,8Zm0,12H4V10H20Z"/></g></svg>