<svg xmlns="http://www.w3.org/2000/svg" viewBox="0 0 24 24"><defs><style>.cls-1{fill:#494949;}.cls-2{fill:none;stroke:#9fb1dc;stroke-linecap:round;stroke-linejoin:round;stroke-width:0;opacity:0;}</style></defs><g id="Layer_2" data-name="Layer 2"><polygon class="cls-1" points="15 13 15 11 5 11 5 13 9 13 9 19 5 19 5 21 9 21 11 21 15 21 15 19 11 19 11 13 15 13"/><polygon class="cls-2" points="3 22 23 22 22 2 3 2 3 22"/><path class="cls-1" d="M18,2a4,4,0,1,0,4,4A4,4,0,0,0,18,2Zm.89,2.67H17.11V2.89h1.78Zm0,4.44H17.11V5.56h1.78Z"/></g></svg>